<svg xmlns="http://www.w3.org/2000/svg" xmlns:xlink="http://www.w3.org/1999/xlink" zoomAndPan="magnify" viewBox="0 0 375 374.999991" preserveAspectRatio="xMidYMid meet" version="1.0"><defs><clipPath id="2758a9c1e8"><path d="M 16.355469 280.679688 L 90.878906 280.679688 L 90.878906 355.492188 L 16.355469 355.492188 Z M 16.355469 280.679688 " clip-rule="nonzero"/></clipPath><clipPath id="98f8e31edf"><path d="M 33.605469 280.679688 L 73.628906 280.679688 C 78.203125 280.679688 82.59375 282.496094 85.828125 285.730469 C 89.0625 288.964844 90.878906 293.355469 90.878906 297.929688 L 90.878906 338.203125 C 90.878906 342.78125 89.0625 347.167969 85.828125 350.402344 C 82.59375 353.636719 78.203125 355.453125 73.628906 355.453125 L 33.605469 355.453125 C 29.03125 355.453125 24.644531 353.636719 21.410156 350.402344 C 18.175781 347.167969 16.355469 342.78125 16.355469 338.203125 L 16.355469 297.929688 C 16.355469 293.355469 18.175781 288.964844 21.410156 285.730469 C 24.644531 282.496094 29.03125 280.679688 33.605469 280.679688 Z M 33.605469 280.679688 " clip-rule="nonzero"/></clipPath><clipPath id="4fdbba154c"><path d="M 0 265.945312 L 108.75 265.945312 L 108.75 374.695312 L 0 374.695312 Z M 0 265.945312 " clip-rule="nonzero"/></clipPath></defs><path fill="#15803d" d="M 187.5 0 C 83.925781 0 0 83.925781 0 187.5 C 0 291.074219 83.925781 375 187.5 375 C 291.074219 375 375 291.074219 375 187.5 C 375 83.925781 291.074219 0 187.5 0 Z M 284.625 259.726562 C 284.625 266.023438 281.925781 272.023438 277.273438 276.300781 C 272.625 280.574219 266.324219 282.675781 260.023438 282.074219 C 238.425781 280.050781 217.5 274.351562 197.925781 265.050781 C 178.875 255.976562 161.699219 243.824219 146.699219 228.898438 C 131.773438 213.976562 119.550781 196.726562 110.550781 177.675781 C 101.25 158.101562 95.476562 137.25 93.523438 115.574219 C 93.449219 114.898438 93.449219 114.226562 93.449219 113.550781 C 93.449219 107.925781 95.550781 102.523438 99.300781 98.324219 C 103.574219 93.675781 109.574219 90.976562 115.875 90.976562 L 146.023438 90.976562 C 157.5 90.976562 167.023438 99.523438 168.300781 110.851562 C 169.050781 117.523438 170.398438 124.125 172.351562 130.5 C 174.824219 138.523438 172.648438 147.148438 166.800781 153 L 154.574219 165.226562 C 167.398438 188.625 186.898438 208.125 210.300781 220.949219 L 222.523438 208.726562 C 228.375 202.875 237 200.699219 245.023438 203.175781 C 251.398438 205.125 258 206.476562 264.675781 207.226562 C 276 208.5 284.550781 218.101562 284.550781 229.5 L 284.550781 259.726562 Z M 284.625 259.726562 " fill-opacity="1" fill-rule="nonzero"/><g clip-path="url(#2758a9c1e8)"><g clip-path="url(#98f8e31edf)"><path fill="#ffffff" d="M 16.355469 280.679688 L 90.878906 280.679688 L 90.878906 355.492188 L 16.355469 355.492188 Z M 16.355469 280.679688 " fill-opacity="1" fill-rule="nonzero"/></g></g><g clip-path="url(#4fdbba154c)"><path fill="#00bf63" d="M 54.527344 265.945312 C 24.449219 265.945312 0 290.394531 0 320.472656 C 0 350.550781 24.449219 375 54.527344 375 C 84.605469 375 109.054688 350.550781 109.054688 320.472656 C 109.054688 290.394531 84.605469 265.945312 54.527344 265.945312 Z M 85.167969 325.75 L 59.804688 325.75 L 59.804688 351.113281 C 59.804688 353.996094 57.449219 356.390625 54.527344 356.390625 C 51.605469 356.390625 49.25 353.996094 49.25 351.113281 L 49.25 325.75 L 23.886719 325.75 C 21 325.75 18.609375 323.390625 18.609375 320.472656 C 18.609375 317.550781 21 315.195312 23.886719 315.195312 L 49.25 315.195312 L 49.25 289.832031 C 49.25 286.945312 51.605469 284.554688 54.527344 284.554688 C 57.449219 284.554688 59.804688 286.945312 59.804688 289.832031 L 59.804688 315.195312 L 85.167969 315.195312 C 88.054688 315.195312 90.445312 317.550781 90.445312 320.472656 C 90.445312 323.390625 88.054688 325.75 85.167969 325.75 Z M 85.167969 325.75 " fill-opacity="1" fill-rule="nonzero"/></g></svg>